<svg xmlns="http://www.w3.org/2000/svg" viewBox="0 0 1000 1000" xml:space="preserve">
<path d="M225.1,408.2c118.3,0,214.2,95.9,214.2,214.2c0,118.3-95.9,214.2-214.2,214.2S11,740.7,11,622.4l-1-30.6c0-236.6,191.8-428.3,428.3-428.3v122.4c-81.7,0-158.6,31.8-216.3,89.6c-11.1,11.1-21.3,23-30.4,35.4C202.5,409.1,213.7,408.2,225.1,408.2L225.1,408.2z M775.8,408.2c118.3,0,214.2,95.9,214.2,214.2c0,118.3-95.9,214.2-214.2,214.2c-118.3,0-214.2-95.9-214.2-214.2l-1-30.6c0-236.6,191.8-428.3,428.3-428.3v122.4c-81.7,0-158.6,31.8-216.3,89.6c-11.1,11.1-21.3,23-30.4,35.4C753.2,409.1,764.4,408.2,775.8,408.2L775.8,408.2z"/>
</svg>
